<svg id="Layer_1" data-name="Layer 1" xmlns="http://www.w3.org/2000/svg" xmlns:xlink="http://www.w3.org/1999/xlink" viewBox="0 0 841.89 523.28"><defs>
	<style>.cls-1{fill:#fff;}.cls-2{fill:#4b2463;}.cls-3{fill:#77429a;}.cls-4{fill:#2f1b44;}.cls-5{mask:url(#mask);}.cls-6,.cls-8{fill:#8558a4;}.cls-6{opacity:0.22;}.cls-7{mask:url(#mask-2);}.cls-9{fill:#6e6769;opacity:0.46;}.cls-10{fill:#786f70;opacity:0.4;}.cls-11{fill:#494244;}.cls-12{fill:#50484a;}.cls-13{fill:#723d97;}.cls-14{fill:#7b4fa0;}.cls-15{fill:#805ba6;}
		.cls-16{
			fill:#c393c2;
			
		}
		@keyframes stars {
			0% {
				fill:#c393c2;
			}
			50% {
				fill:#e4d8e4; /* e4d8e4 */
			}
			100% {
				fill:#c393c2;
			}
		}
		.star1, .star3, .star7, .star8, .star14, .star16, .star22 {
			animation-delay:1s;
			animation: stars 4s ease-in-out infinite;
		}
		.star2, .star4, .star6, .star9, .star13, .star17, .star23 {
			animation-delay:1.7s;
			animation: stars 2s ease-in-out infinite;
		}
		.star5, .star10, .star12, .star15, .star18, .star20, .star22 {
			animation-delay:2.2s;
			animation: stars 3.5s ease-in-out infinite;
		}
		.star11, .star19, .star21, .star24 {
			animation-delay:3.5s;
			animation: stars 6s ease-in-out infinite;
		}
		.cls-17{fill:#5c5455;}.cls-18{fill:#50494a;}.cls-19{fill:#ed2024;}.cls-20{fill:#d32028;}.cls-21{fill:#ececec;}.cls-22{fill:#b4b3b4;}.cls-23,.cls-26{fill:#a5a4a4;}.cls-23{opacity:0.21;}.cls-24{fill:#f2f2f2;}.cls-25,.cls-28{fill:#f9f9fa;}.cls-25{opacity:0.42;}.cls-27{fill:#bab6db;}.cls-28{opacity:0.79;}.cls-29{fill:#c4c4c3;opacity:0.57;}.cls-30{fill:#c6c6c5;}.cls-31{fill:#d3d3d3;}.cls-32{fill:#afafaf;}.cls-33{fill:#bababa;}.cls-34{fill:#a8a8a8;}.cls-35{fill:#a5a5a5;}.cls-36{fill:#191919;}.cls-37{fill:#efefef;}.cls-38{fill:#919191;}.cls-39{fill:#cecece;}.cls-40{fill:#e5e5e5;}.cls-41{fill:#a0a0a0;}.cls-42{fill:#d6d6d6;}.cls-43{fill:#bfbfbf;}.cls-44{fill:#f7f7f7;}
		.cls-45{
			fill:#fdef3e;
			animation: twinkle 1.2s ease-in-out infinite;
		}
		@keyframes twinkle {
			0% {
				fill:#fdf58f;
			}
			60% {
				fill:#fdef3e;
			}
			100% {
				fill:#fdf58f;
			}
		}
		.cls-46{fill:#5d5e5e;}
	</style>
<mask id="mask" x="-57.79" y="77.34" width="483.7" height="495.75" maskUnits="userSpaceOnUse"><circle class="cls-1" cx="169.76" cy="343.78" r="227.5" transform="translate(-73.51 47.43) rotate(-13.1)"/></mask><mask id="mask-2" x="-57.79" y="62.83" width="546.04" height="508.5" maskUnits="userSpaceOnUse"><circle class="cls-1" cx="169.76" cy="343.78" r="227.5" transform="translate(-73.51 47.43) rotate(-13.1)"/></mask></defs><title>001 - Sign Up</title><rect class="cls-2" width="841.89" height="523.28"/><circle class="cls-3" cx="169.76" cy="343.78" r="257.5" transform="translate(-73.51 47.43) rotate(-13.1)"/><circle class="cls-4" cx="169.76" cy="343.78" r="227.5" transform="translate(-73.51 47.43) rotate(-13.1)"/><g class="cls-5"><path class="cls-6" d="M218.76,98.87L55.17,136.94a17.44,17.44,0,0,0-13,20.95l0,0.12a17.44,17.44,0,0,0,20.95,13l39.72-9.24a17.44,17.44,0,0,1,20.95,13h0a17.44,17.44,0,0,1-13,20.95L28.57,214.9a17.44,17.44,0,0,0-13,20.95l0,0.12a17.44,17.44,0,0,0,20.95,13l95.8-22.3a17.44,17.44,0,0,1,20.95,13l0,0.12a17.44,17.44,0,0,1-13,20.95L86.57,273.31a17.44,17.44,0,0,0-13,20.95l0,0.12a17.44,17.44,0,0,0,20.95,13L122,301A17.44,17.44,0,0,1,143,314l0,0.12a17.44,17.44,0,0,1-13,20.95L66.4,349.9a17.44,17.44,0,0,0-13,20.95l0,0.12a17.44,17.44,0,0,0,20.95,13L176,360.34a17.44,17.44,0,0,1,20.95,13h0a17.44,17.44,0,0,1-13,20.95l-29,6.75a17.44,17.44,0,0,0-13,20.95l0,0.12a17.44,17.44,0,0,0,20.95,13l41.66-9.7a17.44,17.44,0,0,1,20.95,13l0,0.12a17.44,17.44,0,0,1-13,20.95L120.28,481a17.44,17.44,0,0,0-13,20.95l0,0.12a17.44,17.44,0,0,0,20.95,13l68.53-15.95a17.44,17.44,0,0,1,20.95,13l0,0.12a17.44,17.44,0,0,1-13,20.95l-22.51,5.24a17.44,17.44,0,0,0-13,20.95l0,0.12a17.44,17.44,0,0,0,20.95,13L321.88,542l90.54-21.07a17.44,17.44,0,0,0,13-20.95L330.24,90.83a17.44,17.44,0,0,0-20.95-13Z"/></g><g class="cls-7"><path class="cls-8" d="M281.09,84.36L117.51,122.43a17.44,17.44,0,0,0-13,20.95l0,0.12a17.44,17.44,0,0,0,20.95,13L209.31,137a17.44,17.44,0,0,1,20.95,13h0a17.44,17.44,0,0,1-13,20.95l-104,24.2a17.44,17.44,0,0,0-13,20.95l0,0.12a17.44,17.44,0,0,0,20.95,13l166.72-38.8a17.44,17.44,0,0,1,20.95,13l0,0.12a17.44,17.44,0,0,1-13,20.95l-128.9,30a17.44,17.44,0,0,0-13,20.95l0,0.12a17.44,17.44,0,0,0,20.95,13l27.54-6.41a17.44,17.44,0,0,1,20.95,13l0,0.12a17.44,17.44,0,0,1-13,20.95L100.82,341.89a17.44,17.44,0,0,0-13,20.95l0,0.12a17.44,17.44,0,0,0,20.95,13l153.67-35.76a17.44,17.44,0,0,1,20.95,13h0a17.44,17.44,0,0,1-13,20.95l-29,6.75a17.44,17.44,0,0,0-13,20.95l0,0.12a17.44,17.44,0,0,0,20.95,13l69.26-16.12a17.44,17.44,0,0,1,20.95,13l0,0.12a17.44,17.44,0,0,1-13,20.95L209.14,460.35a17.44,17.44,0,0,0-13,20.95l0,0.12a17.44,17.44,0,0,0,20.95,13l42-9.78a17.44,17.44,0,0,1,20.95,13l0,0.12a17.44,17.44,0,0,1-13,20.95l-10.82,2.52a17.44,17.44,0,0,0-13,20.95l0,0.12a17.44,17.44,0,0,0,20.95,13l120.08-27.95,90.54-21.07a17.44,17.44,0,0,0,13-20.95L392.58,76.33a17.44,17.44,0,0,0-20.95-13Z"/></g><ellipse class="cls-9" cx="457.5" cy="529.52" rx="506.5" ry="104.11"/><ellipse class="cls-10" cx="457.5" cy="542.1" rx="506.5" ry="104.11"/><ellipse class="cls-11" cx="457.5" cy="551.89" rx="506.5" ry="104.11"/><ellipse class="cls-12" cx="575.5" cy="477.14" rx="103.5" ry="10.86"/><ellipse class="cls-12" cx="489.02" cy="529.52" rx="184.02" ry="16.52"/><ellipse class="cls-12" cx="305" cy="471.14" rx="79" ry="10.86" transform="translate(-18.15 12.26) rotate(-2.24)"/><ellipse class="cls-12" cx="95.5" cy="498" rx="47.5" ry="10" transform="translate(-100.46 30.32) rotate(-11.88)"/><ellipse class="cls-12" cx="831.89" cy="501.45" rx="10" ry="47.5" transform="translate(236.66 1269.04) rotate(-83.29)"/><rect class="cls-13" x="-23" y="297.31" width="979" height="10.46" transform="translate(-57.58 116.81) rotate(-13.45)"/><rect class="cls-14" x="-24.92" y="289.27" width="979" height="10.46" transform="translate(-55.76 116.14) rotate(-13.45)"/><rect class="cls-15" x="-24.92" y="279.77" width="979" height="10.46" transform="translate(-53.55 115.88) rotate(-13.45)"/>
<circle class="cls-16 star1" cx="704.09" cy="107.59" r="3.59"/>
<circle class="cls-16 star2" cx="689.12" cy="126.38" r="3.88"/>
<circle class="cls-16 star3" cx="733.44" cy="124.44" r="1.94"/>
<circle class="cls-16 star4" cx="751.25" cy="66.08" r="3.25"/>
<circle class="cls-16 star5" cx="466.79" cy="23.21" r="2.21"/>
<circle class="cls-16 star6" cx="417.47" cy="117.97" r="3.47"/>
<circle class="cls-16 star7" cx="808.43" cy="265.21" r="3.57"/>
<circle class="cls-16 star8" cx="820.92" cy="295.42" r="0.92"/>
<circle class="cls-16 star9" cx="752.88" cy="286.63" r="1.63"/>
<circle class="cls-16 star10" cx="818.33" cy="116.67" r="1.67"/>
<circle class="cls-16 star11" cx="411.5" cy="30.17" r="2.5"/>
<circle class="cls-16 star12" cx="506.17" cy="216.83" r="2.83"/>
<circle class="cls-16 star13" cx="738.95" cy="419.57" r="3.57"/>
<circle class="cls-16 star14" cx="453.8" cy="406.8" r="1.8"/>
<circle class="cls-16 star15" cx="450.9" cy="170.1" r="2.9"/>
<circle class="cls-16 star16" cx="207.79" cy="23.21" r="2.21"/>
<circle class="cls-16 star17" cx="98.38" cy="29.04" r="3.62"/>
<circle class="cls-16 star18" cx="271.83" cy="17.17" r="3.83"/>
<circle class="cls-16 star19" cx="50.33" cy="57.33" r="1"/>
<circle class="cls-16 star20" cx="31.25" cy="34.75" r="2.08"/>
<circle class="cls-16 star21" cx="598.06" cy="8.73" r="0.94"/>
<circle class="cls-16 star22" cx="7.25" cy="120.42" r="2.08"/>
<circle class="cls-16 star23" cx="636.29" cy="44.05" r="2.29"/>
<circle class="cls-16 star24" cx="785.53" cy="8.73" r="0.94"/>
<ellipse class="cls-17" cx="599.82" cy="479.5" rx="71.23" ry="10.22"/><ellipse class="cls-17" cx="667.62" cy="479.64" rx="100.5" ry="19.22"/><ellipse class="cls-17" cx="510.53" cy="477.14" rx="27.93" ry="9.12"/><ellipse class="cls-18" cx="570.85" cy="478.66" rx="37.01" ry="8.77"/><ellipse class="cls-18" cx="674.37" cy="479.58" rx="0.92" ry="4.11" transform="translate(83.74 1059.17) rotate(-79.88)"/><ellipse class="cls-18" cx="751.25" cy="479.64" rx="0.92" ry="4.11" transform="translate(147.05 1134.91) rotate(-79.88)"/><path class="cls-19" d="M755.89,452.54v0c-2.79,19.19-7.06,26.49-7.06,26.49s0.68-58.1-14.48-77.17c0,0,9.06-22,9.26-23.53C743.61,378.35,762.13,389.89,755.89,452.54Z"/><path class="cls-20" d="M755.89,452.54c6.24-62.65-12.28-74.18-12.28-74.18-0.19,1.49-9.26,23.53-9.26,23.53-3.1-3.9-6.85-6.16-11.41-6-34.45-4.22,7.72-28,7.72-28s27.6,0.39,27.6,47.72A257.13,257.13,0,0,1,755.89,452.54Z"/><path class="cls-19" d="M623,395.26c-1.2.25-2.55,0.48-4,.65-16.38-.68-22.41,30.3-24.63,54.63v0C592.88,466.18,593,479,593,479s-9.41-16.1-9.41-63.44,27.6-47.72,27.6-47.72S649.81,389.69,623,395.26Z"/><path class="cls-20" d="M623,395.26c-1.2.25-2.55,0.48-4,.65-16.38-.68-22.41,30.3-24.63,54.63-1.26-62.22,22.29-60.69,22.29-60.69s6.11,0.48,6.86,3.46A4.9,4.9,0,0,1,623,395.26Z"/><path class="cls-21" d="M736.41,308.43c0-.34,0-0.68,0-1q-0.05-2.22-.16-4.42c0-.22,0-0.43,0-0.65q-0.1-2-.25-3.95c0-.29,0-0.57-0.06-0.86q-0.17-2.14-.39-4.24c0-.29-0.06-0.59-0.1-0.88q-0.21-1.94-.46-3.84c0-.18,0-0.36-0.07-0.54q-0.28-2.08-.6-4.12l-0.15-.94c-0.22-1.37-.46-2.74-0.71-4.09l0-.16c-0.25-1.31-.51-2.62-0.79-3.91l-0.19-.88q-0.43-2-.89-3.88l-0.16-.63q-0.43-1.74-.89-3.45l-0.19-.72q-0.51-1.88-1.06-3.73l-0.24-.79q-0.52-1.72-1.07-3.42l-0.12-.39q-0.6-1.83-1.23-3.62l-0.29-.82q-0.64-1.79-1.31-3.55l-0.1-.26q-0.64-1.67-1.31-3.31l-0.31-.76q-0.7-1.7-1.42-3.37l-0.08-.19c-22.11.59-50.82,0.46-50.82,0.46s-28.71.12-50.82-.46l-0.08.19q-0.72,1.67-1.42,3.37l-0.31.76q-0.67,1.64-1.31,3.31l-0.1.26q-0.67,1.76-1.31,3.55l-0.29.82q-0.63,1.8-1.23,3.62l-0.12.39q-0.55,1.7-1.07,3.42l-0.24.79q-0.55,1.85-1.06,3.73l-0.19.72q-0.46,1.71-.89,3.45l-0.16.63q-0.46,1.92-.89,3.88l-0.19.88c-0.27,1.29-.54,2.59-0.79,3.91l0,0.16c-0.25,1.35-.49,2.72-0.71,4.09l-0.15.94q-0.32,2-.6,4.12c0,0.18,0,.36-0.07.54q-0.25,1.91-.46,3.84c0,0.29-.06.59-0.1,0.88q-0.22,2.11-.39,4.24c0,0.29,0,.57-0.06.86q-0.15,2-.25,3.95c0,0.22,0,.43,0,0.65q-0.11,2.19-.16,4.42c0,0.34,0,.68,0,1,0,1.52,0,3,0,4.59a288.59,288.59,0,0,0,18,97.74c14.21,0.21,47.48.21,47.48,0.21s33.26,0,47.48-.21a288.59,288.59,0,0,0,18-97.74C736.45,311.48,736.43,310,736.41,308.43Z"/><path class="cls-22" d="M670.93,411s-33.26,0-47.48-.21l0.07,0.19,0.2,0.53,0.39,1,0.22,0.56,0.37,1,0.2,0.53,0.43,1.1,0.13,0.32,0.55,1.37,0.14,0.35,0.4,1,0.19,0.45,0.35,0.85,0.19,0.45,0.36,0.84,0.16,0.38,0.49,1.15,0,0.09,0.44,1,0.16,0.36,0.31,0.7,0.16,0.37,0.3,0.66,0.15,0.33,0.33,0.71,0.1,0.21,0.4,0.87,0.1,0.2,0.29,0.61,0.13,0.28,0.23,0.49,0.13,0.27,0.23,0.48,0.09,0.2,0.59,1.19,0.08,0.16,0.18,0.35,0.08,0.16,0.15,0.29,0.07,0.14,0.14,0.28,0,0.09,0.16,0.3,0,0.06,0.1,0.19,0,0.06,0.06,0.12,0,0.05,0,0.06,0,0v0h74.52v0l0,0,0-.06,0-.05,0.06-.12,0-.06,0.1-.19,0-.06,0.16-.3,0-.09,0.14-.28,0.07-.14,0.15-.29,0.08-.16,0.18-.35,0.08-.16,0.59-1.19,0.09-.2,0.23-.48,0.13-.27,0.23-.49,0.13-.28,0.29-.61,0.1-.2,0.4-.87,0.1-.21,0.33-.71,0.15-.33,0.3-.66,0.16-.37,0.31-.7,0.16-.36,0.44-1,0-.09,0.49-1.15,0.16-.38,0.36-.84,0.19-.45,0.35-.85,0.19-.45,0.4-1,0.14-.35L716.4,416l0.13-.32,0.43-1.1,0.2-.53,0.37-1,0.22-.56,0.39-1,0.2-.53,0.07-.19C704.2,411,670.93,411,670.93,411Z"/><path class="cls-23" d="M721.75,253.55S755.59,319,703.55,434.2H692.68s-0.1-29.74-21.75-35.68V367.89s18.49-.78,27.42,10.46C698.35,378.35,732.51,349.45,721.75,253.55Z"/><path class="cls-19" d="M675.61,423.47c0,20.61-.63,33.59-1.43,41.74,0,0.06,0,.11,0,0.17-1.38,13.91-3.23,13.66-3.23,13.66s-4.68.62-4.68-55.58,4.68-55.58,4.68-55.58H671C671.54,368.06,675.61,371.06,675.61,423.47Z"/><path class="cls-19" d="M670.93,169.91c-16.39,16.45-37.11,39.72-50.82,71.15,22.11,0.59,50.82.46,50.82,0.46s28.71,0.12,50.82-.46C708,209.64,687.32,186.36,670.93,169.91Z"/><path class="cls-20" d="M713,235.89s-13.75-31.78-40.7-57c0,0,26.7,47.61,16.36,57.34C688.68,236.26,711.54,236.26,713,235.89Z"/><path class="cls-24" d="M669,174.86s-26.16,24.64-42.42,59C626.59,233.85,670.34,187.09,669,174.86Z"/><path class="cls-25" d="M618.56,255s6-10.41,15.39-10.9,14.34,2,18.31,5c0,0,0,43.61-39.65,96.15C612.61,345.23,602.44,293.25,618.56,255Z"/><circle class="cls-26" cx="669.04" cy="304.15" r="21.86"/><circle class="cls-23" cx="670.03" cy="305.02" r="22.65"/><path class="cls-27" d="M684.5,304.15A15.46,15.46,0,0,1,669,319.61l-0.74,0a15.46,15.46,0,0,1,.74-30.9l0.74,0A15.45,15.45,0,0,1,684.5,304.15Z"/><path class="cls-28" d="M681.14,294.53L668.3,319.59a15.39,15.39,0,0,1-11.36-5.81l12.83-25.06A15.41,15.41,0,0,1,681.14,294.53Z"/><path class="cls-29" d="M626.14,412.13s16.63,0.46,17.56.33c0,0,4.18,19.38,4.79,20.4,0,0-12.78.23-13.52,0C633.35,430.76,626.24,414.87,626.14,412.13Z"/><path class="cls-20" d="M674.18,465.21c2.55-35.56-3.25-97.32-3.25-97.32H671c0.55,0.16,4.62,3.16,4.62,55.57C675.61,444.08,675,457.06,674.18,465.21Z"/><path class="cls-30" d="M615.13,310s7.62-1.41,7.62,10.54-0.25,32-.25,32,3.52,9,3.52,12.83V415.8l-2.39,0S601.55,305.42,607,288C607.4,286.73,614,296.88,615.13,310Z"/><path class="cls-24" d="M567.87,467.21h-29.4a14.87,14.87,0,0,1,14.33-13.56C560.19,453.4,566.88,459.34,567.87,467.21Z"/><path class="cls-24" d="M601.42,467.2H572.14a14.73,14.73,0,0,1,14.41-13.54C595.58,453.51,601.16,461.45,601.42,467.2Z"/><path class="cls-1" d="M614.16,315.39a8.31,8.31,0,0,1,1.35,0,1.56,1.56,0,0,1,1.42,2.12,5.31,5.31,0,0,0,0,1.08q0,13.63,0,27.26v1.51a51.76,51.76,0,0,0-10.94-10.89,33.18,33.18,0,0,0,5.41-10C612.46,322.89,613.21,319.21,614.16,315.39Z"/><path class="cls-31" d="M614.16,315.39a8.31,8.31,0,0,1,1.35,0,1.56,1.56,0,0,1,1.42,2.12,5.31,5.31,0,0,0,0,1.08q0,13.63,0,27.26v1.51a51.76,51.76,0,0,0-10.94-10.89,33.18,33.18,0,0,0,5.41-10C612.46,322.89,613.21,319.21,614.16,315.39Z"/><path class="cls-32" d="M614.52,328.49a24.77,24.77,0,0,1,2.37.85c0,9.09,0,7.43,0,16.51v1.51a51.76,51.76,0,0,0-10.94-10.89,33.18,33.18,0,0,0,5.41-10A15.58,15.58,0,0,0,614.52,328.49Z"/><path class="cls-33" d="M567.89,471.42v4.46H538.42v-4.46h29.47Z"/><path class="cls-33" d="M572.08,475.87v-4.44h29.37v4.44H572.08Z"/><path class="cls-34" d="M585.31,475.87c2-1.79,6.26-3.65,7.87-4.44h8.26v4.44H585.31Z"/><path class="cls-35" d="M555.19,475.86c2-1.79,6.26-3.65,7.87-4.44h4.83v4.44h-12.7Z"/><path class="cls-24" d="M621.85,355.63a7.08,7.08,0,0,1-.53-2.61c0-11.67,0-23.34,0-35,0-.51,0-1-0.05-1.52a5.71,5.71,0,0,0-5.13-5.19c-0.67-.07-1.35-0.09-2-0.13-0.84-21.73-18.27-39-40.1-40.43a42.08,42.08,0,0,0-27.69,7.7c-11.41,8.05-17.51,19.16-18.48,33.07l-0.51,0c-4.13.07-6.35,2.32-6.35,6.42q0,17.56,0,35.12a4.6,4.6,0,0,1-.46,2c-2.85,5.77-5.77,11.52-8.6,17.3a2,2,0,0,1-1.62,1.18c-2.13.39-4.26,0.81-6.39,1.22L493.2,376.8c-0.1-.49-0.21-0.9-0.28-1.33q-1.46-9-2.91-18.1-2.48-15.31-5-30.62c-0.2-1.25-.38-2.5-0.65-3.74a2.35,2.35,0,0,0-2.93-1.88c-1.22.29-1.74,1.34-1.44,2.81,0.19,0.92.3,1.86,0.48,2.78a1.29,1.29,0,0,1-.67,1.52,53.56,53.56,0,0,1-11.21,5.66c-6.37,2.25-12.7,2.63-19.2.23a59.15,59.15,0,0,0-18.16-3.94c-4.18-.17-8.16.44-11.62,3a1.41,1.41,0,0,0-.64,1.56c0.34,1.81.62,3.63,0.93,5.45q2.14,12.73,4.28,25.46c0.44,2.58.88,5.17,1.29,7.55a50.68,50.68,0,0,1,5.51-2.54c3.7-1.21,7.51-.9,11.29-0.34a79.33,79.33,0,0,1,14.86,3.93,23.36,23.36,0,0,0,12.3.84,46,46,0,0,0,16.39-6.91l1.1-.67,1.49,9.43-1.42.29a6.16,6.16,0,0,0-4.6,7.19q1.41,6.07,2.89,12.13a5.29,5.29,0,0,0,4.38,4.15c0.73,0.15,1.49.17,2.28,0.26l11.52,71.71-12.32-4.32-0.24.53,12.27,6.73-12.45,6.89,0.15,0.32a10,10,0,0,0,1.33-.3c4.34-1.59,8.68-3.17,13-4.8a3,3,0,0,1,2.39,0c2.9,1.21,5.82,2.39,8.77,3.48,1.65,0.61,3.37,1,5.06,1.49l0.17-.4-12.18-6.66,12.32-6.81-0.18-.37c-4.49.94-8.62,2.94-13.06,4.51l-11.88-73.29h1.46c8.81,0,17.61,0,26.42,0a2.55,2.55,0,0,0,1.92-.76c2.31-2.2,4.65-4.36,7-6.53,0.22-.2.47-0.38,0.89-0.72v87.64h71V438.65c8.52-1.59,13.6-6.53,15.17-15.16h4.26v-1.2q0-25.71,0-51.42A39.6,39.6,0,0,0,621.85,355.63Zm-54,120.26H538.42v-4.46h29.47v4.46Zm18-67.84h-31.8V369.61h31.8V408Zm0.66,45.62c9-.15,14.62,7.79,14.88,13.54H572.14A14.73,14.73,0,0,1,586.55,453.66Zm-18.68,13.55h-29.4a14.87,14.87,0,0,1,14.33-13.56C560.19,453.4,566.88,459.34,567.87,467.21Zm33.58,8.66H572.08v-4.44h29.37v4.44ZM580.27,346.59A35.56,35.56,0,0,1,538,325a36.89,36.89,0,0,1-1.78-21.11c1.54-7.58,6.19-12.37,13.48-14.73,6.94-2.24,14.08-2.86,22.56-2.86a59.31,59.31,0,0,1,19.81,3.06c1.46,0.52,2.88,1.17,4.29,1.81,5.79,2.63,8.88,7.35,10,13.41A36.42,36.42,0,0,1,580.27,346.59Zm36.66-29.06a5.32,5.32,0,0,0,0,1.08q0,13.63,0,27.26v1.51a51.76,51.76,0,0,0-10.94-10.89,33.18,33.18,0,0,0,5.41-10c1.1-3.57,1.85-7.25,2.8-11.07a8.31,8.31,0,0,1,1.35,0A1.56,1.56,0,0,1,616.94,317.53Z"/><path class="cls-33" d="M585.89,369.61V408h-31.8V369.61h31.8Zm-29.47,36h27.1V372h-27.1v33.7Z"/><path class="cls-33" d="M572.25,286.31a59.31,59.31,0,0,1,19.81,3.06c1.46,0.52,2.88,1.17,4.29,1.81,5.79,2.63,8.88,7.35,10,13.41a36.42,36.42,0,0,1-26.12,42A35.56,35.56,0,0,1,538,325a36.89,36.89,0,0,1-1.78-21.11c1.54-7.58,6.19-12.37,13.48-14.73C556.62,286.93,563.77,286.31,572.25,286.31Zm-2.08,2.24c-3.18.2-6.36,0.31-9.53,0.62a46.68,46.68,0,0,0-13.16,3,14.81,14.81,0,0,0-9.13,10.32,33.88,33.88,0,0,0-.22,16.54c3.72,16.87,20.46,28.46,37.44,25.73,11.13-1.79,19.33-7.89,24.57-17.87,3.52-6.7,4.2-13.93,3.62-21.32a13.35,13.35,0,0,0-7.66-11.45,46,46,0,0,0-5.12-2.34C584.27,289.33,577.27,288.65,570.17,288.55Z"/><path class="cls-1" d="M556.42,405.66V372h27.1v33.7h-27.1Zm21.34-28.56h-15v2.21h15V377.1Zm-15,8.32h15V383.2h-15v2.22Zm0,5.83h15V389h-15v2.22Zm10.4,7.83a3.19,3.19,0,0,0-6.38,0A3.19,3.19,0,1,0,573.15,399.09Z"/><path class="cls-36" d="M570.17,288.55c7.11,0.1,14.1.79,20.82,3.23a46,46,0,0,1,5.12,2.34,13.35,13.35,0,0,1,7.66,11.45c0.57,7.39-.1,14.62-3.62,21.32-5.25,10-13.44,16.08-24.57,17.87-17,2.74-33.71-8.86-37.44-25.73a33.88,33.88,0,0,1,.22-16.54,14.81,14.81,0,0,1,9.13-10.32,46.68,46.68,0,0,1,13.16-3C563.8,288.86,567,288.75,570.17,288.55Z"/><path class="cls-33" d="M577.76,377.1v2.21h-15V377.1h15Z"/><path class="cls-33" d="M562.75,385.43V383.2h15v2.22h-15Z"/><path class="cls-33" d="M562.75,391.26V389h15v2.22h-15Z"/><path class="cls-33" d="M573.15,399.09a3.19,3.19,0,1,1-3.18-3.16A3.19,3.19,0,0,1,573.15,399.09Z"/><path class="cls-37" d="M540.83,300.17c1.2-2.91,5.61-5.7,7.85-6.65a22.92,22.92,0,0,1,6.05-1.36s-12.86,20.57-7.52,37.4C547.21,329.55,533.86,317.07,540.83,300.17Z"/><path class="cls-31" d="M601.45,342s-29.62,26.16-60.17.76c0,0,13.46,23,61.1,7.06,8.53-2.47,18.27,14.7,18.28,21.8,0,0,1.56-18.14-16.9-32C603.76,339.59,602.38,341.07,601.45,342Z"/><path class="cls-32" d="M605.31,385.79s1.21,43.24.39,48.26C605.7,434,603.78,409.06,605.31,385.79Z"/><path class="cls-32" d="M606,426.2s-0.39-2,2.77-2.45,10.81-.61,11.76-0.25c0,0-.76-0.79-14.55,0C606,423.53,605.61,426,606,426.2Z"/><path class="cls-38" d="M585.89,369.61l0.89,0.91s0.47,37.8,0,38.38-31.35-.13-32.7-0.86h31.8V369.61Z"/><path class="cls-32" d="M605.81,407.86s0-15.86,1.24-18.82-1.3-12.55-1.74-3.25S605.81,407.86,605.81,407.86Z"/><path class="cls-39" d="M537.12,385.73s-6,9.33-12.06,11.59-22,2.39-24.8,2.4l24.25,0a2.53,2.53,0,0,0,1.92-.76c0.94-.89,7.57-7.08,7.88-7.26s5.11-6.23,5.05-10.32A41,41,0,0,1,537.12,385.73Z"/><path class="cls-40" d="M510.26,373.52s8.1,4.12,8.39,5.79c0,0-1.71-3.52-7.18-6.38C511.47,372.94,511.35,373.32,510.26,373.52Z"/><path class="cls-32" d="M570,429.29v36.27s0.85,2.31,1.24-2.51c0.48-6,.53-19.66.53-23.22C571.72,433.4,571.68,423.88,570,429.29Z"/><path class="cls-41" d="M586.55,453.66a15.48,15.48,0,0,1,14.88,13.54s-5.84-.19-8.6,0C592.82,467.2,600.4,460.58,586.55,453.66Z"/><path class="cls-42" d="M586.55,453.66s-14.41.48-14.41,13.54C572.14,467.2,571.91,455.85,586.55,453.66Z"/><path class="cls-43" d="M552.92,453.66A15.48,15.48,0,0,1,567.8,467.2a64,64,0,0,0-6.74-.07S567.09,458.33,552.92,453.66Z"/><path class="cls-42" d="M552.92,453.66s-14.41.48-14.41,13.54C538.52,467.2,538.28,455.85,552.92,453.66Z"/><path class="cls-40" d="M610,399.11s10.19,0.47,11.51,0C621.49,399.11,614.88,400.61,610,399.11Z"/><path class="cls-32" d="M581,440.88s8.67-1.45,11.15,0A65.87,65.87,0,0,0,581,440.88Z"/><path class="cls-32" d="M584,441.85s4-.73,5.11,0A27.74,27.74,0,0,0,584,441.85Z"/><path class="cls-32" d="M548.06,441.85s4-.73,5.11,0A27.74,27.74,0,0,0,548.06,441.85Z"/><path class="cls-32" d="M545.72,441.2s8.67-1.45,11.15,0A65.87,65.87,0,0,0,545.72,441.2Z"/><path class="cls-39" d="M500.82,381.83s4.26,10.15-1.71,15.49S504.59,391.53,500.82,381.83Z"/><path class="cls-39" d="M535.12,337.43s-6.81,4.46-10,10.15C525.13,347.58,531.65,340.35,535.12,337.43Z"/><path class="cls-24" d="M538.47,338.76s-14.53-13.63-8.34-39.09A53,53,0,0,0,538.47,338.76Z"/><path class="cls-39" d="M534.31,391.71v21.63s0.31-22.23,2.9-25.72C537.21,387.61,534.31,391,534.31,391.71Z"/><path class="cls-44" d="M533.09,344.19s-10.66,12.66-13.25,21.39c-0.2.69,0.52,1.58,1.1,1.16,8.47-6.16,17.25-11.93,22.56-13.15C549.84,352.14,536,339.38,533.09,344.19Z"/><path class="cls-1" d="M558.4,273.56s-23.44,8.93-28,30.47c-0.08.39,0.5,0.7,0.68,0.34,7.41-15,21.85-22,27.92-28.26C560.59,274.44,558.49,273.62,558.4,273.56Z"/><path class="cls-1" d="M534.31,411.37v47.54s3.36-25.15,2.9-33.73S536.09,406.28,534.31,411.37Z"/><polygon class="cls-45" points="541.81 296.45 553.19 298.9 541.81 301.34 539.36 312.72 536.92 301.34 525.54 298.9 536.92 296.45 539.36 285.07 541.81 296.45"/><path class="cls-46" d="M-282-203V731H1215V-203H-282ZM841.89,523.28H0V0H841.89V523.28Z"/></svg>