<svg id="Layer_1" data-name="Layer 1" xmlns="http://www.w3.org/2000/svg" xmlns:xlink="http://www.w3.org/1999/xlink" viewBox="0 0 261 256">
  <defs>
    <style>
      .cls-1 {
        fill: #dd8083;
      }

      .cls-1, .cls-3, .cls-4, .cls-5 {
        stroke: #000;
        stroke-miterlimit: 10;
      }

      .cls-2 {
        fill: rgba(0,0,0,0);
      }

      .cls-3 {
        fill: #13755e;
      }

      .cls-4 {
        fill: #fff;
      }

      .cls-5 {
        fill: #b9203b;
      }

      .cls-6, .cls-8 {
        opacity: 0.31;
      }

      .cls-6 {
        fill: url(#radial-gradient);
      }

      .cls-7 {
        fill: #317037;
      }

      .cls-8 {
        fill: url(#radial-gradient-2);
      }

      .cls-9 {
        mask: url(#mask);
      }

      .cls-10 {
        fill: #7c4948;
      }
    </style>
    <radialGradient id="radial-gradient" cx="68.19" cy="100.34" r="18.38" gradientUnits="userSpaceOnUse">
      <stop offset="0" stop-color="#fff"/>
      <stop offset="0.86" stop-color="#fff"/>
      <stop offset="1" stop-color="#fff" stop-opacity="0"/>
    </radialGradient>
    <radialGradient id="radial-gradient-2" cx="1176.51" cy="100.34" r="18.38" gradientTransform="matrix(-1, 0, 0, 1, 1372.21, 0)" xlink:href="#radial-gradient"/>
    <mask id="mask" x="0" y="157.25" width="246.76" height="69.5" maskUnits="userSpaceOnUse">
      <g transform="translate(5)">
        <path class="cls-1" d="M234.51,168.37s1.13,3.75-3.37,6.75-14.79,7.63-36,9.63-41.83-.33-45,0-8.23,3.94-22.42,3.63-18.56-.94-21.31-2.19-22.5-2.62-31.25-2.87-48.62-4.94-61.38-15.87c0,0,11.5,9.75,13.13,11.88S61.38,226.25,120,226.25s93.88-32.5,103.5-43.5a39.67,39.67,0,0,1,8.17-7.46S235.59,172.25,234.51,168.37Z"/>
      </g>
    </mask>
  </defs>
  <title>bulbasaur</title>
  <rect class="cls-2" x="5" width="256" height="256"/>
  <g>
    <g id="leaf">
      <path class="cls-3" d="M98.13,57.37S100,69.69,89.57,76.31c0,0-4.31-6.44-4.06-10.25S88.07,58.12,98.13,57.37Z" transform="translate(5)"/>
      <path class="cls-3" d="M121.07,68.12s-11.87-16.31-10.31-27.75,5.09-15.69,5.09-15.69,5.35-3,15.1-2.69,30.19,3.81,46.75,18.25c0,0-10.31,15-24.31,20.5S130.21,67.62,121.07,68.12Z" transform="translate(5)"/>
      <path class="cls-3" d="M156.51,75.56s-2.06,26.75-6.06,31.31c0,0-15.25-8.69-17.31-14S140.13,81.5,156.51,75.56Z" transform="translate(5)"/>
    </g>
    <g id="eyeL">
      <path class="cls-4" d="M86.51,149.58s-27.67-1.38-43.5-2.7a99,99,0,0,1-10-1.13c-6.67-1.5-7.17-3.5-7.17-3.5s0-23.67,7.67-39.33,19.17-25.5,31.83-23.84a15.92,15.92,0,0,1,2.85.64c11,3.55,18.09,18.61,19.32,33.53C88.84,129.42,87.84,143.08,86.51,149.58Z" transform="translate(5)"/>
      <path class="cls-5" d="M86.51,149.58s-27.67-1.38-43.5-2.7c-0.53-4.43-.95-9.65-1.17-15.8C40.68,98.42,68.18,79.73,68.18,79.73h0c11,3.55,18.09,18.61,19.32,33.53C88.84,129.42,87.84,143.08,86.51,149.58Z" transform="translate(5)"/>
      <circle class="cls-4" cx="76.48" cy="113.65" r="10.09"/>
      <circle class="cls-6" cx="68.19" cy="100.34" r="18.38"/>
      <path class="cls-7" d="M51.63,68.12A28.84,28.84,0,0,1,55,67.93c1.08,0,2.38,0,3.88.13a48.9,48.9,0,0,1,10.86,2A44.32,44.32,0,0,1,76,72.5a40.36,40.36,0,0,1,6.18,3.75,36.39,36.39,0,0,1,5.51,5.06,37.93,37.93,0,0,1,4.36,6.09c0.6,1.08,1.14,2.18,1.67,3.27s0.91,2.22,1.31,3.32,0.7,2.21,1,3.29l0.71,3.21c0.22,1,.32,2.08.47,3.07L97.44,105l0.09,1.42,0.17,2.65c0,0.84,0,1.64,0,2.39l0,2.1c0,0.65-.08,1.24-0.11,1.78-0.16,2.14-.29,3.36-0.29,3.36s-0.06-1.23-.1-3.37c0-.53,0-1.13,0-1.77l-0.17-2.08c-0.06-.74-0.11-1.53-0.2-2.35l-0.35-2.59-0.18-1.38-0.28-1.42c-0.21-1-.35-2-0.61-3l-0.83-3.08L93.4,94.59c-0.42-1-.9-2.08-1.35-3.14S91,89.39,90.41,88.36a36.25,36.25,0,0,0-4.19-5.73A34.43,34.43,0,0,0,81,77.79a43.42,43.42,0,0,0-5.81-3.72,51.69,51.69,0,0,0-6-2.6,55.3,55.3,0,0,0-5.6-1.68A58.56,58.56,0,0,0,55,68.32c-1.06-.08-1.9-0.16-2.48-0.17S51.63,68.12,51.63,68.12Z" transform="translate(5)"/>
    </g>
    <g id="eyeR">
      <path class="cls-4" d="M167.39,149.58s27.67-1.38,43.5-2.7a99,99,0,0,0,10-1.13c6.67-1.5,7.17-3.5,7.17-3.5s0-23.67-7.67-39.33-19.17-25.5-31.83-23.84a15.92,15.92,0,0,0-2.85.64c-11,3.55-18.09,18.61-19.32,33.53C165.06,129.42,166.06,143.08,167.39,149.58Z" transform="translate(5)"/>
      <path class="cls-5" d="M167.39,149.58s27.67-1.38,43.5-2.7c0.53-4.43.95-9.65,1.17-15.8,1.16-32.66-26.34-51.35-26.34-51.35h0c-11,3.55-18.09,18.61-19.32,33.53C165.06,129.42,166.06,143.08,167.39,149.58Z" transform="translate(5)"/>
      <circle class="cls-4" cx="187.42" cy="113.65" r="10.09"/>
      <circle class="cls-8" cx="195.71" cy="100.34" r="18.38"/>
      <path class="cls-7" d="M202.26,68.12s-0.31,0-.88,0-1.41.09-2.48,0.17a58.56,58.56,0,0,0-8.69,1.47,55.3,55.3,0,0,0-5.6,1.68,51.69,51.69,0,0,0-6,2.6,43.42,43.42,0,0,0-5.81,3.72,34.43,34.43,0,0,0-5.18,4.85,36.25,36.25,0,0,0-4.19,5.73c-0.58,1-1.1,2.06-1.65,3.08s-0.93,2.1-1.35,3.14l-1.08,3.14-0.83,3.08c-0.27,1-.4,2-0.61,3l-0.28,1.42-0.18,1.38-0.35,2.59c-0.09.83-.13,1.61-0.2,2.35l-0.17,2.08c0,0.64,0,1.23,0,1.77,0,2.14-.1,3.37-0.1,3.37s-0.12-1.22-.29-3.36c0-.54-0.1-1.13-0.11-1.78l0-2.1c0-.75,0-1.55,0-2.39l0.17-2.65,0.09-1.42,0.19-1.46c0.15-1,.26-2,0.47-3.07l0.71-3.21c0.31-1.08.67-2.17,1-3.29s0.87-2.2,1.31-3.32,1.06-2.19,1.67-3.27a37.93,37.93,0,0,1,4.36-6.09,36.39,36.39,0,0,1,5.51-5.06,40.36,40.36,0,0,1,6.18-3.75,44.32,44.32,0,0,1,6.27-2.44,48.9,48.9,0,0,1,10.86-2c1.5-.1,2.81-0.13,3.88-0.13A28.84,28.84,0,0,1,202.26,68.12Z" transform="translate(5)"/>
    </g>
    <path class="cls-7" d="M80.34,224.91s0.32,0.17.94,0.44S82.82,226,84,226.48s2.6,1,4.28,1.5,3.57,1,5.63,1.62c1,0.29,2.14.49,3.26,0.75s2.29,0.54,3.5.72l3.72,0.64c1.27,0.19,2.59.32,3.91,0.49,2.65,0.4,5.42.45,8.22,0.68,1.4,0.14,2.82.06,4.24,0.1l4.28,0c2.85-.17,5.71-0.24,8.51-0.48s5.55-.59,8.21-0.95l7.62-1.32c1.22-.16,2.37-0.54,3.5-0.77l3.27-.76c2.09-.49,4-0.89,5.7-1.44l4.35-1.28c2.42-.7,3.82-1.08,3.82-1.08s-1.33.54-3.69,1.45L162.06,228c-0.83.29-1.69,0.7-2.64,1l-3,.88c-2.09.58-4.32,1.34-6.75,1.89l-7.67,1.6c-2.68.42-5.47,0.77-8.31,1.13s-5.75.37-8.64,0.55l-4.35-.06c-1.45,0-2.89,0-4.31-.13-2.85-.23-5.66-0.4-8.35-0.86-1.34-.21-2.68-0.36-4-0.62l-3.75-.8c-1.22-.24-2.39-0.57-3.52-0.88s-2.23-.59-3.26-0.95l-3-1c-0.94-.31-1.8-0.71-2.62-1-1.65-.63-3-1.32-4.18-1.84A38.92,38.92,0,0,1,80.34,224.91Z" transform="translate(5)"/>
    <path class="cls-1" d="M231.68,175.29s-0.23.14-.63,0.43a42,42,0,0,0-7.54,7c-0.91,1-2.06,2.28-3.43,3.67-13.09,13.2-47,39.83-100.07,39.83-49.25,0-80.28-31.62-89.91-43-1.83-2.17-2.89-3.6-3.15-3.94-1-1.31-5.81-5.56-9.32-8.59v0l-3.3-2.84a27.08,27.08,0,0,0,3.37,2.27c5.3,3.08,12.75,5.56,20.58,7.51h0a215.87,215.87,0,0,0,36.91,5.66c8.75,0.25,28.5,1.63,31.25,2.88s7.12,1.87,21.31,2.18,19.25-3.29,22.42-3.62,23.83,2,45,0a141.4,141.4,0,0,0,17.15-2.59c10-2.2,15.74-5,18.8-7,3.32-2.21,3.59-4.82,3.5-6.05C235.11,172.62,231.68,175.29,231.68,175.29Z" transform="translate(5)"/>
    <g class="cls-9">
      <path class="cls-10" d="M36.43,190.13s54.74,8.7,63.16,8.36c5.58,0,6.42,1.75,11.5,2.29s24,1.67,28.48,0,13.25-2.85,16.19-2.92,49,0.94,53.83-2.12,25.67,1.09,25.67,1.09l6.5-34.34-85.87,3.88-94.5-1.25L1.76,157.25s-7,17-6.75,18,20.12,33.13,21.25,33.13S36.43,190.13,36.43,190.13Z" transform="translate(5)"/>
    </g>
    <path class="cls-4" d="M38.29,177.65l-8.19,5.6-3.47,2.38-9-14.91v0l0.07-.57c5.3,3.08,12.75,5.56,20.58,7.51h0Z" transform="translate(5)"/>
    <path class="cls-4" d="M231.13,175.13l-0.08.59-2.1,15.59-8.87-4.89-7.75-4.26C222.34,180,228.07,177.17,231.13,175.13Z" transform="translate(5)"/>
    <g id="nose">
      <path class="cls-7" d="M141.52,162a26.55,26.55,0,0,1-.11,2.88,25,25,0,0,1-.39,2.95c-0.09.54-.23,1.09-0.37,1.65a16.28,16.28,0,0,1-.55,1.7,10.8,10.8,0,0,1-.78,1.68,6.61,6.61,0,0,1-.54.8,6.28,6.28,0,0,1-.71.7,7.27,7.27,0,0,1-.89.51c-0.24.09-.47,0.18-0.72,0.25a8.6,8.6,0,0,1-1.46.33,5,5,0,0,1-2.29-.13,1.57,1.57,0,0,1-.78-0.51l0.14-.15a1.89,1.89,0,0,0,.71-0.06,9.31,9.31,0,0,0,1.78-.69l1.15-.58,0.66-.35c0.15-.11.3-0.21,0.46-0.3a6.57,6.57,0,0,0,1-.91,7.25,7.25,0,0,0,.87-1.28,14.77,14.77,0,0,0,.7-1.47c0.2-.51.39-1,0.55-1.51s0.3-1,.45-1.45,0.26-.91.36-1.32c0.41-1.65.61-2.78,0.61-2.78Z" transform="translate(5)"/>
      <path class="cls-7" d="M105.84,163.27s0.75,0.85,1.82,2.17,2.47,3.1,3.82,4.93l1,1.38a10.82,10.82,0,0,1,.92,1.43,5.69,5.69,0,0,1,.36.83l0,0.05h0l0-.09v0l0,0.09,0.07,0.17,0,0.09,0,0,0,0a1.47,1.47,0,0,0,.59.54,6.46,6.46,0,0,0,1.75.55l0.78,0.14,0,0.19a3.67,3.67,0,0,1-.75.38,4.68,4.68,0,0,1-.94.26,3.82,3.82,0,0,1-1.35,0,2.81,2.81,0,0,1-1.67-.9,3.21,3.21,0,0,1-.34-0.47L112,175l0-.08v0l0-.1h0l0,0c-0.1-.17-0.16-0.36-0.29-0.58l-0.67-1.41c-0.23-.5-0.5-1-0.75-1.48-1.07-2-2.23-3.9-3.06-5.38l-1.4-2.45Z" transform="translate(5)"/>
    </g>
  </g>
</svg>
