<svg id="Layer_1" data-name="Layer 1" xmlns="http://www.w3.org/2000/svg" viewBox="0 0 256 256">
  <defs>
    <style>
      .cls-1 {
        fill: rgba(0,0,0,0);
      }

      .cls-2, .cls-7 {
        fill: #231f20;
      }

      .cls-3 {
        fill: #070909;
      }

      .cls-3, .cls-7, .cls-8, .cls-9 {
        stroke: #231f20;
      }

      .cls-10, .cls-3, .cls-7, .cls-8, .cls-9 {
        stroke-miterlimit: 10;
      }

      .cls-4 {
        fill: #0b4977;
      }

      .cls-5 {
        fill: #7b7b7b;
        opacity: 0.5;
      }

      .cls-6, .cls-9 {
        fill: #fff;
      }

      .cls-8 {
        fill: #ad4c70;
      }

      .cls-10 {
        fill: none;
        stroke: #bd8032;
      }
    </style>
  </defs>
  <title>charmander</title>
  <rect class="cls-1" width="256" height="256"/>
  <g>
    <g id="eyeL">
      <path class="cls-2" d="M78.18,54.7s0.22,0.26.54,0.71,0.75,1.1,1.2,1.9a27.4,27.4,0,0,1,1.39,2.81c0.23,0.52.44,1.07,0.65,1.63s0.38,1.14.57,1.72,0.31,1.17.47,1.74l0.36,1.7c0.1,0.56.17,1.1,0.24,1.6s0.1,1,.15,1.44,0.09,0.85.09,1.22l0,0.94,0,0.82-0.11-.81-0.12-.93c0-.36-0.13-0.76-0.21-1.2s-0.16-.91-0.3-1.4-0.25-1-.4-1.54l-0.52-1.62c-0.21-.54-0.4-1.09-0.63-1.63s-0.45-1.08-.72-1.59-0.51-1-.78-1.49a25.86,25.86,0,0,0-1.59-2.5c-0.5-.7-1-1.25-1.28-1.62s-0.5-.53-0.51-0.54Z"/>
      <path class="cls-3" d="M22.25,119.08C18.48,115.35,23.42,102.5,27,92.5s8.75-28,25.5-37.12S76.12,80.14,76.58,85.08c1.42,15.17,0,26.6-2.25,33.75S69.08,133,63.75,133.42C55.36,134.07,31.17,127.92,22.25,119.08Z"/>
      <path class="cls-4" d="M28.19,119.69a8,8,0,0,1-3.37-6.19c-0.14-2.18.44-9,4-13.12,3.78-4.37,6.72-5.84,7.91-5.62,1.72,0.31,2.15,9.55,2.84,12.56,0.94,4.06,2.69,7.13,7.06,8.44,2.42,0.73,8.2.37,9.84-.56,3.63-2.06,6-4.92,6.78-7.62,0.63-2.2,1.18-2.9,2.19-2.87,2.16,0,6.24,4.43,5.56,12.19s-3.71,11-7.87,12.94C58.39,132,41.47,128.6,28.19,119.69Z"/>
      <ellipse class="cls-5" cx="53.44" cy="117.04" rx="10.73" ry="8.08"/>
      <ellipse class="cls-6" cx="57.73" cy="79" rx="13.48" ry="22.5"/>
    </g>
    <g id="nose">
      <path class="cls-7" d="M108.71,152l3.88,4.08S108,156.25,108.71,152Z"/>
      <path class="cls-7" d="M147.29,152l-3.87,4.08S148,156.25,147.29,152Z"/>
    </g>
    <g id="mouth">
      <path class="cls-8" d="M208.39,159.53c-4.12,1.52-8.67,3.06-13.61,4.54A232.66,232.66,0,0,1,128,174a232.66,232.66,0,0,1-66.78-9.93c-4.94-1.48-9.49-3-13.61-4.54-6.39-2.36-11.74-4.67-15.92-6.62,0.33,0.69,14.68,29.94,42.57,49.73,2,1.44,4.14,2.83,6.31,4.16a89,89,0,0,0,94.86,0c2.17-1.33,4.28-2.72,6.31-4.16,27.89-19.79,42.24-49,42.57-49.73C220.13,154.86,214.78,157.17,208.39,159.53Z"/>
      <path class="cls-2" d="M31.34,153.26h0l0.14,0.1c-3.17-1.58-6.3-3.23-9.34-5.07l-0.57-.35-0.28-.18-0.08-.06h0l0,0h0l0,0L21,147.48a3.5,3.5,0,0,1-.43-1.37,17.92,17.92,0,0,1-.16-2.67,23.1,23.1,0,0,1,.15-2.66A2.7,2.7,0,0,1,22,138.67a2.64,2.64,0,0,0-1.32,2.14,22.93,22.93,0,0,0,0,2.64,17.64,17.64,0,0,0,.28,2.61,3.61,3.61,0,0,0,.38,1.14l0.11,0.12,0,0h0l0,0h0l0.06,0,0.28,0.16,0.57,0.32c3.1,1.67,6.29,3.17,9.51,4.59l0.07,0L32,152.55h0Z"/>
      <path class="cls-9" d="M61.22,164.07c-0.81,4.83-2.75,11.17-7.05,9.93-6.67-1.92-6.56-14.47-6.56-14.47C51.73,161,56.28,162.59,61.22,164.07Z"/>
      <path class="cls-9" d="M80.57,206.8c-2.17-1.33-4.28-2.72-6.31-4.16a2.55,2.55,0,0,1,2.83-2.39C81,200.44,80.57,206.8,80.57,206.8Z"/>
      <path class="cls-2" d="M234,138.67a2.7,2.7,0,0,1,1.45,2.12,23.1,23.1,0,0,1,.15,2.65,17.92,17.92,0,0,1-.16,2.67,3.67,3.67,0,0,1-.41,1.34,1.82,1.82,0,0,1-.58.48l-0.57.35c-3,1.83-6.17,3.48-9.34,5.07l0.14-.1h0l-0.71-.71h0l0.07-.07,0.07,0c3.22-1.42,6.42-2.92,9.51-4.59l0.57-.32a1.52,1.52,0,0,0,.46-0.32,3.37,3.37,0,0,0,.4-1.16,17.64,17.64,0,0,0,.28-2.61,22.92,22.92,0,0,0,0-2.64A2.64,2.64,0,0,0,234,138.67Z"/>
      <path class="cls-9" d="M194.78,164.07c0.81,4.83,2.75,11.17,7.05,9.93,6.67-1.92,6.56-14.47,6.56-14.47C204.27,161,199.72,162.59,194.78,164.07Z"/>
      <path class="cls-9" d="M175.43,206.8c2.17-1.33,4.28-2.72,6.31-4.16a2.55,2.55,0,0,0-2.83-2.39C175,200.44,175.43,206.8,175.43,206.8Z"/>
      <path class="cls-10" d="M174.25,219.5S158.42,230.42,128,230.42,81.75,219.5,81.75,219.5"/>
    </g>
    <g id="eyeR">
      <path class="cls-2" d="M179.3,56s-0.18.17-.51,0.54-0.78.92-1.28,1.62a25.87,25.87,0,0,0-1.59,2.5c-0.27.47-.53,1-0.78,1.49s-0.48,1.06-.72,1.59-0.42,1.09-.63,1.63l-0.52,1.62c-0.15.53-.27,1.05-0.4,1.54s-0.2,1-.3,1.4-0.18.84-.21,1.2l-0.12.93-0.11.81,0-.82,0-.94c0-.37.05-0.77,0.09-1.22s0.06-.94.15-1.44,0.15-1,.24-1.6l0.36-1.7c0.16-.57.29-1.16,0.47-1.74s0.35-1.16.57-1.72,0.41-1.11.65-1.63a27.4,27.4,0,0,1,1.39-2.81c0.45-.8.89-1.45,1.2-1.9s0.55-.72.54-0.71Z"/>
      <path class="cls-3" d="M233.75,119.08c3.77-3.74-1.17-16.58-4.75-26.58s-8.75-28-25.5-37.12-23.62,24.77-24.08,29.71c-1.42,15.17,0,26.6,2.25,33.75s5.25,14.17,10.58,14.58C200.64,134.07,224.83,127.92,233.75,119.08Z"/>
      <path class="cls-4" d="M227.81,119.69a8,8,0,0,0,3.38-6.19c0.14-2.18-.44-9-4-13.12-3.78-4.37-6.72-5.84-7.91-5.62-1.72.31-2.15,9.55-2.84,12.56-0.94,4.06-2.69,7.13-7.06,8.44-2.42.73-8.2,0.37-9.84-.56-3.62-2.06-6-4.92-6.78-7.62-0.62-2.2-1.18-2.9-2.19-2.87-2.16,0-6.24,4.43-5.56,12.19s3.71,11,7.88,12.94C197.61,132,214.53,128.6,227.81,119.69Z"/>
      <ellipse class="cls-5" cx="202.56" cy="117.04" rx="10.73" ry="8.08"/>
      <ellipse class="cls-6" cx="198.27" cy="79" rx="13.48" ry="22.5"/>
    </g>
  </g>
</svg>
