<svg id="Layer_1" data-name="Layer 1" xmlns="http://www.w3.org/2000/svg" xmlns:xlink="http://www.w3.org/1999/xlink" viewBox="0 0 841.89 1164.28"><defs><style>.cls-1{fill:#fff;}.cls-2{fill:#4b2463;}.cls-3{fill:#77429a;}.cls-4{fill:#2f1b44;}.cls-5{mask:url(#mask);}.cls-6,.cls-8{fill:#8558a4;}.cls-6{opacity:0.22;}.cls-7{mask:url(#mask-2);}.cls-9{fill:#6e6769;opacity:0.46;}.cls-10{fill:#786f70;opacity:0.4;}.cls-11{fill:#494244;}.cls-12{fill:#50484a;}.cls-13{fill:#c393c2;}</style><mask id="mask" x="-57.79" y="718.34" width="483.7" height="495.75" maskUnits="userSpaceOnUse"><circle class="cls-1" cx="169.76" cy="984.78" r="227.5" transform="translate(-218.8 64.11) rotate(-13.1)"/></mask><mask id="mask-2" x="-57.79" y="703.83" width="546.04" height="508.5" maskUnits="userSpaceOnUse"><circle class="cls-1" cx="169.76" cy="984.78" r="227.5" transform="translate(-218.8 64.11) rotate(-13.1)"/></mask></defs><title>spaceBG</title><rect class="cls-2" width="841.89" height="1164.28"/><circle class="cls-3" cx="169.76" cy="984.78" r="257.5" transform="translate(-218.8 64.11) rotate(-13.1)"/><circle class="cls-4" cx="169.76" cy="984.78" r="227.5" transform="translate(-218.8 64.11) rotate(-13.1)"/><g class="cls-5"><path class="cls-6" d="M218.76,739.87L55.17,777.94a17.44,17.44,0,0,0-13,20.95l0,0.12a17.44,17.44,0,0,0,20.95,13l39.72-9.24a17.44,17.44,0,0,1,20.95,13h0a17.44,17.44,0,0,1-13,20.95L28.57,855.9a17.44,17.44,0,0,0-13,20.95l0,0.12a17.44,17.44,0,0,0,20.95,13l95.8-22.3a17.44,17.44,0,0,1,20.95,13l0,0.12a17.44,17.44,0,0,1-13,20.95L86.57,914.31a17.44,17.44,0,0,0-13,20.95l0,0.12a17.44,17.44,0,0,0,20.95,13L122,942A17.44,17.44,0,0,1,143,955l0,0.12a17.44,17.44,0,0,1-13,20.95L66.4,990.9a17.44,17.44,0,0,0-13,20.95l0,0.12a17.44,17.44,0,0,0,20.95,13L176,1001.34a17.44,17.44,0,0,1,20.95,13h0a17.44,17.44,0,0,1-13,20.95l-29,6.75a17.44,17.44,0,0,0-13,20.95l0,0.12a17.44,17.44,0,0,0,20.95,13l41.66-9.7a17.44,17.44,0,0,1,20.95,13l0,0.12a17.44,17.44,0,0,1-13,20.95L120.28,1122a17.44,17.44,0,0,0-13,20.95l0,0.12a17.44,17.44,0,0,0,20.95,13l68.53-15.95a17.44,17.44,0,0,1,20.95,13l0,0.12a17.44,17.44,0,0,1-13,20.95l-22.51,5.24a17.44,17.44,0,0,0-13,20.95l0,0.12a17.44,17.44,0,0,0,20.95,13L321.88,1183l90.54-21.07a17.44,17.44,0,0,0,13-20.95L330.24,731.83a17.44,17.44,0,0,0-20.95-13Z"/></g><g class="cls-7"><path class="cls-8" d="M281.09,725.36L117.51,763.43a17.44,17.44,0,0,0-13,20.95l0,0.12a17.44,17.44,0,0,0,20.95,13L209.31,778a17.44,17.44,0,0,1,20.95,13h0a17.44,17.44,0,0,1-13,20.95l-104,24.2a17.44,17.44,0,0,0-13,20.95l0,0.12a17.44,17.44,0,0,0,20.95,13l166.72-38.8a17.44,17.44,0,0,1,20.95,13l0,0.12a17.44,17.44,0,0,1-13,20.95l-128.9,30a17.44,17.44,0,0,0-13,20.95l0,0.12a17.44,17.44,0,0,0,20.95,13l27.54-6.41a17.44,17.44,0,0,1,20.95,13l0,0.12a17.44,17.44,0,0,1-13,20.95L100.82,982.89a17.44,17.44,0,0,0-13,20.95l0,0.12a17.44,17.44,0,0,0,20.95,13l153.67-35.76a17.44,17.44,0,0,1,20.95,13h0a17.44,17.44,0,0,1-13,20.95l-29,6.75a17.44,17.44,0,0,0-13,20.95l0,0.12a17.44,17.44,0,0,0,20.95,13l69.26-16.12a17.44,17.44,0,0,1,20.95,13l0,0.12a17.44,17.44,0,0,1-13,20.95l-117.33,27.31a17.44,17.44,0,0,0-13,20.95l0,0.12a17.44,17.44,0,0,0,20.95,13l42-9.78a17.44,17.44,0,0,1,20.95,13l0,0.12a17.44,17.44,0,0,1-13,20.95l-10.82,2.52a17.44,17.44,0,0,0-13,20.95l0,0.12a17.44,17.44,0,0,0,20.95,13l120.08-27.95,90.54-21.07a17.44,17.44,0,0,0,13-20.95L392.58,717.33a17.44,17.44,0,0,0-20.95-13Z"/></g><ellipse class="cls-9" cx="457.5" cy="1170.52" rx="506.5" ry="104.11"/><ellipse class="cls-10" cx="457.5" cy="1183.1" rx="506.5" ry="104.11"/><ellipse class="cls-11" cx="457.5" cy="1192.89" rx="506.5" ry="104.11"/><ellipse class="cls-12" cx="575.5" cy="1118.14" rx="103.5" ry="10.86"/><ellipse class="cls-12" cx="489.02" cy="1170.52" rx="184.02" ry="16.52"/><ellipse class="cls-12" cx="305" cy="1112.14" rx="79" ry="10.86" transform="translate(-43.17 12.75) rotate(-2.24)"/><ellipse class="cls-12" cx="95.5" cy="1139" rx="47.5" ry="10" transform="translate(-232.4 44.05) rotate(-11.88)"/><ellipse class="cls-12" cx="831.89" cy="1142.45" rx="10" ry="47.5" transform="translate(-399.95 1835.13) rotate(-83.29)"/><circle class="cls-13" cx="704.09" cy="748.59" r="3.59"/><circle class="cls-13" cx="689.12" cy="767.38" r="3.88"/><circle class="cls-13" cx="733.44" cy="765.44" r="1.94"/><circle class="cls-13" cx="751.25" cy="707.08" r="3.25"/><circle class="cls-13" cx="466.79" cy="664.21" r="2.21"/><circle class="cls-13" cx="417.47" cy="758.97" r="3.47"/><circle class="cls-13" cx="808.43" cy="906.21" r="3.57"/><circle class="cls-13" cx="820.92" cy="936.42" r="0.92"/><circle class="cls-13" cx="752.88" cy="927.63" r="1.63"/><circle class="cls-13" cx="818.33" cy="757.67" r="1.67"/><circle class="cls-13" cx="411.5" cy="671.17" r="2.5"/><circle class="cls-13" cx="506.17" cy="857.83" r="2.83"/><circle class="cls-13" cx="738.95" cy="1060.57" r="3.57"/><circle class="cls-13" cx="453.8" cy="1047.8" r="1.8"/><circle class="cls-13" cx="450.9" cy="811.1" r="2.9"/><circle class="cls-13" cx="207.79" cy="664.21" r="2.21"/><circle class="cls-13" cx="98.38" cy="670.04" r="3.62"/><circle class="cls-13" cx="271.83" cy="658.17" r="3.83"/><circle class="cls-13" cx="50.33" cy="698.33" r="1"/><circle class="cls-13" cx="31.25" cy="675.75" r="2.08"/><circle class="cls-13" cx="598.06" cy="649.73" r="0.94"/><circle class="cls-13" cx="7.25" cy="761.42" r="2.08"/><circle class="cls-13" cx="636.29" cy="685.05" r="2.29"/><circle class="cls-13" cx="785.53" cy="649.73" r="0.94"/><circle class="cls-13" cx="277.2" cy="486.68" r="3.59" transform="translate(-262.94 338.55) rotate(-45)"/><circle class="cls-13" cx="295.46" cy="380.02" r="3.88" transform="translate(-182.18 320.23) rotate(-45)"/><circle class="cls-13" cx="244.54" cy="495.52" r="1.94" transform="translate(-278.76 318.05) rotate(-45)"/><circle class="cls-13" cx="273.21" cy="549.37" r="3.25" transform="translate(-308.44 354.1) rotate(-45)"/><circle class="cls-13" cx="504.67" cy="378.54" r="2.21" transform="translate(-119.86 467.73) rotate(-45)"/><circle class="cls-13" cx="472.53" cy="276.67" r="3.47" transform="translate(-57.23 415.17) rotate(-45)"/><circle class="cls-13" cx="91.97" cy="449.01" r="3.57" transform="translate(-290.56 196.55) rotate(-45)"/><circle class="cls-13" cx="61.78" cy="436.47" r="0.92" transform="translate(-290.54 171.53) rotate(-45)"/><circle class="cls-13" cx="116.11" cy="394.58" r="1.62" transform="translate(-245 197.67) rotate(-45)"/><circle class="cls-13" cx="190.01" cy="561.04" r="1.67" transform="translate(-341.06 298.68) rotate(-45)"/><circle class="cls-13" cx="538.85" cy="334.53" r="2.5" transform="translate(-78.72 479) rotate(-45)"/><circle class="cls-13" cx="339.91" cy="269.48" r="2.83" transform="translate(-90.99 319.28) rotate(-45)"/><circle class="cls-13" cx="31.95" cy="290.72" r="3.57" transform="translate(-196.21 107.74) rotate(-45)"/><circle class="cls-13" cx="242.61" cy="98.12" r="1.8" transform="translate(1.68 200.29) rotate(-45)"/><circle class="cls-13" cx="412.04" cy="263.44" r="2.9" transform="translate(-65.6 368.52) rotate(-45)"/><circle class="cls-13" cx="687.81" cy="195.4" r="2.21" transform="translate(63.28 543.59) rotate(-45)"/><circle class="cls-13" cx="761.05" cy="113.91" r="3.62" transform="translate(142.36 571.51) rotate(-45)"/><circle class="cls-13" cx="646.8" cy="244.96" r="3.83" transform="translate(16.23 529.1) rotate(-45)"/><circle class="cls-13" cx="775.02" cy="59.94" r="1" transform="translate(184.62 565.58) rotate(-45)"/><circle class="cls-13" cx="804.48" cy="62.41" r="2.08" transform="translate(191.5 587.13) rotate(-45)"/><circle class="cls-13" cx="422.09" cy="481.61" r="0.94" transform="translate(-216.92 439.52) rotate(-45)"/><circle class="cls-13" cx="189.7" cy="385.13" r="2.08" transform="translate(-216.76 246.94) rotate(-45)"/><circle class="cls-13" cx="370.08" cy="483.66" r="2.29" transform="translate(-233.61 403.35) rotate(-45)"/><circle class="cls-13" cx="289.53" cy="614.17" r="0.94" transform="translate(-349.48 384.61) rotate(-45)"/><circle class="cls-13" cx="408.9" cy="579.13" r="3.59" transform="translate(-117.3 104.05) rotate(-12.7)"/><circle class="cls-13" cx="376.57" cy="569.15" r="1.94" transform="translate(-115.9 96.7) rotate(-12.7)"/><circle class="cls-13" cx="372.02" cy="629.99" r="3.25" transform="translate(-129.39 97.19) rotate(-12.7)"/><circle class="cls-13" cx="658.95" cy="609.29" r="2.21" transform="translate(-117.82 159.75) rotate(-12.7)"/><circle class="cls-13" cx="686.23" cy="506" r="3.47" transform="translate(-94.44 163.22) rotate(-12.7)"/><circle class="cls-13" cx="272.47" cy="448.31" r="3.57" transform="translate(-91.88 70.86) rotate(-12.7)"/><circle class="cls-13" cx="253.65" cy="421.58" r="0.92" transform="translate(-86.47 66.07) rotate(-12.7)"/><circle class="cls-13" cx="321.96" cy="415.2" r="1.62" transform="translate(-83.39 80.93) rotate(-12.7)"/><circle class="cls-13" cx="295.46" cy="595.39" r="1.67" transform="translate(-123.65 79.51) rotate(-12.7)"/><circle class="cls-13" cx="711.36" cy="590.35" r="2.5" transform="translate(-112.37 170.81) rotate(-12.7)"/><circle class="cls-13" cx="577.98" cy="429.06" r="2.83" transform="translate(-80.18 137.55) rotate(-12.7)"/><circle class="cls-13" cx="306.32" cy="282.45" r="3.57" transform="translate(-54.59 74.24) rotate(-12.7)"/><circle class="cls-13" cx="587.3" cy="232.22" r="1.8" transform="translate(-36.68 134.78) rotate(-12.7)"/><circle class="cls-13" cx="642.16" cy="462.5" r="2.9" transform="translate(-85.96 152.47) rotate(-12.7)"/><circle class="cls-13" cx="497.61" cy="946.26" r="2.21" transform="translate(-195.84 132.53) rotate(-12.7)"/><circle class="cls-13" cx="603.07" cy="916.52" r="3.62" transform="translate(-186.72 154.98) rotate(-12.7)"/><circle class="cls-13" cx="643.72" cy="878.36" r="1" transform="translate(-177.34 162.99) rotate(-12.7)"/><circle class="cls-13" cx="667.3" cy="896.2" r="2.08" transform="translate(-180.68 168.61) rotate(-12.7)"/><circle class="cls-13" cx="534.07" cy="652.27" r="0.94" transform="translate(-130.32 133.35) rotate(-12.7)"/><circle class="cls-13" cx="671.88" cy="807.35" r="2.08" transform="translate(-161.04 167.44) rotate(-12.7)"/><circle class="cls-13" cx="489.02" cy="626.22" r="2.29" transform="translate(-125.69 122.81) rotate(-12.7)"/><circle class="cls-13" cx="351.19" cy="693.48" r="0.94" transform="translate(-143.85 94.16) rotate(-12.7)"/><circle class="cls-13" cx="747.81" cy="229.8" r="3.59" transform="translate(-28.64 134.11) rotate(-10.06)"/><circle class="cls-13" cx="383.26" cy="127.43" r="3.88" transform="translate(-16.36 68.88) rotate(-10.06)"/><circle class="cls-13" cx="736.35" cy="261.64" r="1.94" transform="translate(-34.37 132.6) rotate(-10.06)"/><circle class="cls-13" cx="796.91" cy="268.98" r="3.25" transform="translate(-34.73 143.29) rotate(-10.06)"/><circle class="cls-13" cx="218.28" cy="381.67" r="2.21" transform="translate(-63.29 43.98) rotate(-10.06)"/><circle class="cls-13" cx="116.37" cy="349.66" r="3.47" transform="translate(-59.27 25.69) rotate(-10.06)"/><circle class="cls-13" cx="610.83" cy="360.06" r="3.57" transform="translate(-53.49 112.19) rotate(-10.06)"/><circle class="cls-13" cx="583.27" cy="377.63" r="0.92" transform="translate(-56.98 107.65) rotate(-10.06)"/><circle class="cls-13" cx="580.04" cy="309.1" r="1.63" transform="translate(-45.06 106.04) rotate(-10.06)"/><circle class="cls-13" cx="758.82" cy="343.87" r="1.67" transform="translate(-48.39 137.79) rotate(-10.06)"/><circle class="cls-13" cx="201.78" cy="328.44" r="2.5" transform="translate(-54.25 40.28) rotate(-10.06)"/><circle class="cls-13" cx="605.68" cy="53.99" r="2.83" transform="translate(-0.12 106.59) rotate(-10.06)"/><circle class="cls-13" cx="446.71" cy="318.6" r="3.57" transform="matrix(0.98, -0.17, 0.17, 0.98, -48.77, 82.9)"/><circle class="cls-13" cx="409.49" cy="35.6" r="1.8" transform="translate(0.07 72.05) rotate(-10.06)"/><circle class="cls-13" cx="70.88" cy="391.67" r="2.9" transform="translate(-67.3 18.39) rotate(-10.06)"/><circle class="cls-13" cx="173.06" cy="126.65" r="2.21" transform="translate(-19.46 32.16) rotate(-10.06)"/><circle class="cls-13" cx="148.21" cy="19.94" r="3.62" transform="translate(-1.2 26.19) rotate(-10.06)"/><circle class="cls-13" cx="190.19" cy="188.65" r="3.83" transform="translate(-30.02 36.11) rotate(-10.06)"/><circle class="cls-13" cx="826.64" cy="108.13" r="0.94" transform="translate(-6.18 146.01) rotate(-10.06)"/><circle class="cls-13" cx="798.54" cy="151.94" r="2.29" transform="translate(-14.26 141.77) rotate(-10.06)"/></svg>