<svg id="Layer_1" data-name="Layer 1" xmlns="http://www.w3.org/2000/svg" xmlns:xlink="http://www.w3.org/1999/xlink" viewBox="0 0 256 256">
  <defs>
    <style>
      .cls-1 {
        fill: rgba(0,0,0,0);
      }

      .cls-2 {
        fill: #231f20;
      }

      .cls-3 {
        fill: #fff;
      }

      .cls-4 {
        fill: url(#linear-gradient);
      }

      .cls-5 {
        fill: url(#linear-gradient-2);
      }
    </style>
    <linearGradient id="linear-gradient" x1="51.33" y1="165.57" x2="51.33" y2="77.58" gradientUnits="userSpaceOnUse">
      <stop offset="0" stop-color="#c0bdc0"/>
      <stop offset="0.49" stop-color="#361d28"/>
      <stop offset="1" stop-color="#361d28"/>
    </linearGradient>
    <linearGradient id="linear-gradient-2" x1="-732.36" y1="165.57" x2="-732.36" y2="77.58" gradientTransform="matrix(-1, 0, 0, 1, -527.69, 0)" xlink:href="#linear-gradient"/>
  </defs>
  <title>squirtle</title>
  <rect class="cls-1" width="256" height="256"/>
  <g>
    <path class="cls-2" d="M254.5,199.17a9.35,9.35,0,0,1-2,2.26,24,24,0,0,1-7.3,4.3,53.55,53.55,0,0,1-12.84,3c-1.27.13-2.58,0.33-3.93,0.4l-4.18.21c-1.43.08-2.9,0-4.4,0s-3,0-4.6-.16l-4.79-.31c-1.62-.15-3.27-0.36-5-0.54-3.37-.35-6.8-0.84-10.35-1.29-7.08-.88-14.56-1.79-22.26-2.32l-2.89-.12c-1,0-1.92,0-2.89,0s-1.91.1-2.86,0.17a19.2,19.2,0,0,0-2.72.52,14.93,14.93,0,0,0-4.92,2.55c-0.83.58-1.68,1.17-2.58,1.74l-2.6,1.64a100.08,100.08,0,0,1-10.81,6.34,31.46,31.46,0,0,1-6.15,2.16,29.3,29.3,0,0,1-6.56.76l-1.56-.05c-0.52,0-1.11-.09-1.66-0.14a26.13,26.13,0,0,1-3.25-.56,31.47,31.47,0,0,1-6.15-2.16,100.12,100.12,0,0,1-10.82-6.34l-2.6-1.64c-0.85-.53-1.73-1.15-2.57-1.73a14.93,14.93,0,0,0-4.92-2.55,19.2,19.2,0,0,0-2.72-.52c-0.95-.07-1.89-0.16-2.86-0.17s-1.92,0-2.89,0l-2.89.12c-7.7.53-15.19,1.44-22.27,2.32l-5.24.69-1.29.17-1.3.16-2.53.28c-1.67.18-3.31,0.39-4.93,0.54l-4.81.31c-1.57.13-3.11,0.15-4.61,0.16s-3,.09-4.4,0l-4.18-.21c-1.35-.07-2.66-0.28-3.93-0.4a53.56,53.56,0,0,1-12.84-3,24,24,0,0,1-7.3-4.3,9.35,9.35,0,0,1-2-2.26,9.31,9.31,0,0,0,2.07,2.13A24.88,24.88,0,0,0,11,205.18a52.73,52.73,0,0,0,12.75,2.48,104.87,104.87,0,0,0,16.88-.12l4.71-.42c1.6-.18,3.24-0.44,4.91-0.66l2.52-.35,1.25-.18,1.28-.2,5.23-.82c7.08-1.06,14.55-2.19,22.4-2.79l3-.16c1-.06,2,0,3,0S91,202,92,202.06a21.9,21.9,0,0,1,3.17.56,10.41,10.41,0,0,1,1.58.51,11,11,0,0,1,1.52.69,26.36,26.36,0,0,1,2.72,1.69c0.83,0.57,1.62,1.12,2.5,1.67l2.59,1.61a98,98,0,0,0,10.51,6.12,28.5,28.5,0,0,0,5.58,1.94,23.23,23.23,0,0,0,2.89.49c0.49,0,.93.11,1.45,0.12l1.56,0a26.6,26.6,0,0,0,5.8-.65,28.5,28.5,0,0,0,5.58-1.94,98,98,0,0,0,10.52-6.12l2.59-1.62c0.83-.52,1.65-1.09,2.49-1.66a26.36,26.36,0,0,1,2.72-1.68,11,11,0,0,1,1.52-.69,10.41,10.41,0,0,1,1.58-.51,21.9,21.9,0,0,1,3.17-.56c1-.06,2.08-0.15,3.09-0.15s2,0,3,0l3,0.16c7.85,0.6,15.32,1.74,22.4,2.79,3.53,0.54,7,1.12,10.28,1.54,1.66,0.22,3.28.47,4.89,0.65l4.73,0.42a104.71,104.71,0,0,0,16.89.12A52.73,52.73,0,0,0,245,205.18a24.87,24.87,0,0,0,7.39-3.88A9.31,9.31,0,0,0,254.5,199.17Z"/>
    <g id="nose">
      <path class="cls-2" d="M106.48,188.88a2.93,2.93,0,0,1,.37,0,4.23,4.23,0,0,1,.82.12,3.13,3.13,0,0,1,1.63,1,3.07,3.07,0,0,1,.67,1.76,5.49,5.49,0,0,1,0,.8c0,0.21,0,.37,0,0.37a1.18,1.18,0,0,1-.38.07,3.27,3.27,0,0,1-.86-0.07,3,3,0,0,1-2.37-2.87,4,4,0,0,1,.07-0.83A2.67,2.67,0,0,1,106.48,188.88Z"/>
      <path class="cls-2" d="M149.52,188.88a2.67,2.67,0,0,1,.09.36,4,4,0,0,1,.07.83,3,3,0,0,1-2.37,2.87,3.27,3.27,0,0,1-.86.07,1.18,1.18,0,0,1-.38-0.07s0-.16,0-0.37a5.49,5.49,0,0,1,0-.8,3.07,3.07,0,0,1,.67-1.76,3.13,3.13,0,0,1,1.63-1,4.23,4.23,0,0,1,.82-0.12A2.93,2.93,0,0,1,149.52,188.88Z"/>
    </g>
    <g id="eyeL">
      <g>
        <path class="cls-3" d="M30.08,89.75s-8.42,15.75-9.25,34a338.2,338.2,0,0,0,1,37.14,1.35,1.35,0,0,0,1.35,1.24H44.42Z"/>
        <path class="cls-2" d="M29.22,90.25c-6.94,13.06-9.4,27.83-9.44,42.46,0,8.45.32,16.9,0.91,25.33,0.13,1.89-.23,4.43,2.14,4.58,2,0.13,4,0,6,0H43.55a9.69,9.69,0,0,0,1.73-1L32.74,98.27l-1.79-9c0,0.2-1.78.78-1.73,1L41.76,153.6l1.79,9,1.73-1H25.56a7.89,7.89,0,0,1-1.47,0c-1.51-.31-1.43-1.41-1.53-2.67-1.34-17.36-2.69-35.79,1.95-52.75a82.8,82.8,0,0,1,6.45-17C30.69,89.74,29.49,89.74,29.22,90.25Z"/>
      </g>
      <g>
        <path class="cls-4" d="M25.83,141.5c2,15.57,15.83,24,25.33,24s27.5,3,27.5-29.83S64.33,87.83,59.83,83.83,40.51,69.4,30.08,89.75C24.16,101.31,22.17,112.33,25.83,141.5Z"/>
        <path class="cls-2" d="M25,142a28.19,28.19,0,0,0,17.52,22.39c5.11,2,11.25,2,16.69,1.52a22.42,22.42,0,0,0,12.37-5.08c6.47-5.51,7.71-15.17,8-23.13C80,119.79,76,100,63.66,86.28a29.21,29.21,0,0,0-11.4-8.13c-6.06-2.21-12.2-.44-16.92,3.75-6.5,5.77-10,15.68-11.39,24.11-1.89,11.85-.45,24.18,1,36,0-.24,1.77-0.73,1.73-1-2.08-16.68-4.05-34.57,3.48-50.21,2-4.13,4.65-8.93,8.78-11.29a13.41,13.41,0,0,1,9.93-.86,26.57,26.57,0,0,1,11.73,7.27C71.21,96.59,76,112,77.38,126.68c0.87,9.52,1.22,20.64-3.2,29.43a19.12,19.12,0,0,1-5.52,6.61c-1.6,1.25.65-.25-0.4,0.25-0.3.15-.61,0.29-0.92,0.42-0.52.22-1.05,0.41-1.59,0.58a22.5,22.5,0,0,1-3.72.8c-5.4.73-11.92,0.73-17.06-1.1A28.18,28.18,0,0,1,26.7,141C26.73,141.23,24.93,141.74,25,142Z"/>
      </g>
      <ellipse class="cls-2" cx="57.27" cy="123.19" rx="12.85" ry="25.84"/>
      <circle class="cls-3" cx="46.39" cy="94.09" r="13.95"/>
    </g>
    <g id="eyeR">
      <g>
        <path class="cls-3" d="M225.92,89.75s8.42,15.75,9.25,34a338.2,338.2,0,0,1-1,37.14,1.35,1.35,0,0,1-1.35,1.24H211.58Z"/>
        <path class="cls-2" d="M225.05,90.25a82.89,82.89,0,0,1,9.14,32.21,212.85,212.85,0,0,1,0,23.52q-0.19,5-.51,10c-0.11,1.78.28,5.22-1.1,6.48l1.73-1c-2.71.68-6,.16-8.81,0.16h-12c-1.49,0-1.12-.12-0.85-1.5l1.36-6.86L224,103.43l2.81-14.18c-0.08.42-1.64,0.56-1.73,1L213.22,150,211,161.2a3.67,3.67,0,0,0-.22,1.42,6.75,6.75,0,0,0,1.9,0h13.71a35.86,35.86,0,0,0,5.57,0,5,5,0,0,0,1.87-.85,2.84,2.84,0,0,0,1.33-2.64c0.3-3.85.52-7.71,0.69-11.56,0.55-12.33,1.11-25-1.57-37.14a84.39,84.39,0,0,0-7.5-21.19S225,90.22,225.05,90.25Z"/>
      </g>
      <g>
        <path class="cls-5" d="M230.17,141.5c-2,15.57-15.83,24-25.33,24s-27.5,3-27.5-29.83,14.33-47.83,18.83-51.83,19.32-14.44,29.75,5.92C231.84,101.31,233.83,112.33,230.17,141.5Z"/>
        <path class="cls-2" d="M229.3,142C228,151.3,222,160.25,213,163.58c-4.81,1.78-10.45,1.76-15.53,1.38-4.89-.37-9.59-2-12.92-5.74-5.61-6.36-6.35-16-6.36-24.06,0-16.78,3.83-34.76,15-47.84,2.79-3.29,6.11-6.45,10.19-8,7.62-3,14.59.19,19.16,6.68,11.41,16.23,9.1,37.49,6.79,56,0-.39,1.68-0.59,1.73-1,2.25-18.07,4.28-37.69-5.5-54-4.49-7.49-11.83-12-20.45-8.68a33.29,33.29,0,0,0-10.77,6.95c-11.68,11.22-16.59,28.2-17.61,43.91-0.62,9.51-.84,21.23,4.87,29.45,3.25,4.67,8.32,6.85,13.86,7.33,6.63,0.56,13.49.22,19.44-3,8.64-4.64,14.79-12,16.17-22C231,141.39,229.36,141.58,229.3,142Z"/>
      </g>
      <ellipse class="cls-2" cx="198.73" cy="123.19" rx="12.85" ry="25.84"/>
      <circle class="cls-3" cx="209.61" cy="94.09" r="13.95"/>
    </g>
  </g>
</svg>
